<svg width="296" height="60" viewBox="0 0 296 60" fill="none" xmlns="http://www.w3.org/2000/svg">
<path d="M0 48V40H28V48H0ZM28 40V24H36V40H28ZM28 24H8V16H28V24ZM8 16H0V8H8V16ZM8 8V0H36V8H8Z" fill="#2B2B2B"/>
<path d="M48 48V40H40V32H48V24H68V20H76V48H48ZM68 40V32H48V40H68ZM68 20H40V12H68V20Z" fill="#2B2B2B"/>
<path d="M108 48V20H116V48H108ZM80 48V12H108V20H88V48H80Z" fill="#2B2B2B"/>
<path d="M144 48V40H152V48H144ZM120 48V0H128V24H136V32H144V40H136V32H128V48H120ZM136 24V16H144V24H136ZM144 16V8H152V16H144Z" fill="#2B2B2B"/>
<path d="M164 48V40H156V32H164V24H184V20H192V48H164ZM184 40V32H164V40H184ZM184 20H156V12H184V20Z" fill="#2B2B2B"/>
<path d="M196 48V0H204V48H196Z" fill="#2B2B2B"/>
<path d="M208 60V12H216V20H224V28H216V36H236V44H216V60H208ZM236 36V20H244V36H236ZM236 20H224V12H236V20Z" fill="#2B2B2B"/>
<path d="M256 48V40H248V32H256V24H276V20H284V48H256ZM276 40V32H256V40H276ZM276 20H248V12H276V20Z" fill="#2B2B2B"/>
<path d="M288 48V40H296V48H288Z" fill="#2B2B2B"/>
</svg>
